<?xml version="1.0" encoding="utf-8"?>
<!-- Generator: Adobe Illustrator 18.1.1, SVG Export Plug-In . SVG Version: 6.00 Build 0)  -->
<svg version="1.1" id="圖層_1" xmlns="http://www.w3.org/2000/svg" xmlns:xlink="http://www.w3.org/1999/xlink" x="0px" y="0px"
	 viewBox="0 0 236.7 237.1" enable-background="new 0 0 236.7 237.1" xml:space="preserve">
<g>
	<g>
		<path fill="#43B03F" d="M-265.2,121.2c0-60.4,49-109.4,109.4-109.4c60.4,0,109.4,49,109.4,109.4c0,60.4-49,109.4-109.4,109.4
			C-216.2,230.5-265.2,181.6-265.2,121.2z"/>
		<g>
			<path fill-rule="evenodd" clip-rule="evenodd" fill="#FEFFFE" d="M-233.6,112.2c3-22.6,16.3-37.6,35.6-47.9
				c15.4-8.2,31.9-11.1,49.3-9.8c17.2,1.3,33,6.6,46.8,17.2c11.4,8.8,19.5,19.9,22.9,34.1c0.5,2.1,0.7,4.2,1.1,6.4
				c-0.1,0.5-0.1,0.9,0.2,1.3c0,2.4,0,4.9,0,7.3c-0.2,0.4-0.3,0.9-0.1,1.3c0,0.2-0.1,0.4-0.1,0.7c0,0.2,0,0.4,0,0.6
				c0,0.2,0,0.4-0.1,0.7c-0.9,4.7-2.1,9.3-4,13.7c-4.3,9.6-10.9,17.5-18.5,24.6c-14.9,14-31.6,25.4-49.2,35.7
				c-2.7,1.6-5.4,3.1-8.4,3.9c-3.2,0.8-4.3,0-4.6-3.2c0.3-2.2,0.7-4.4,1-6.7c0.2-0.2,0.2-0.4,0.1-0.7c0.2-0.4,0.3-0.9,0.2-1.3
				c0.2-0.4,0.3-0.9,0.2-1.3c0.2-0.7,0.2-1.3,0.1-2c0.2-3.4-0.7-4.9-3.8-6.2c-1.6-0.7-3.4-1.1-5.1-1.4c-13.8-2-26.5-6.8-37.8-15
				c-11.4-8.3-19.7-18.8-23.7-32.4c-0.7-2.4-1.2-4.8-1.7-7.3c0-0.3,0-0.7-0.1-1c0-0.1,0-0.2,0-0.3c0-0.3-0.1-0.7-0.1-1
				c0.1-0.5,0.1-0.9-0.1-1.3c0-2.4,0-4.9,0-7.3C-233.6,113.1-233.5,112.7-233.6,112.2z M-156.2,115.3c0.5,0.5,0.7,0.7,0.8,0.9
				c3.3,4.5,6.7,9.1,10,13.7c1.5,2.1,3.1,4.2,4.6,6.3c1.3,1.7,3.1,2.2,5,1.7c1.6-0.5,2.7-1.9,2.7-3.6c0-10.5,0-21,0-31.5
				c0-1.5-0.7-2.5-1.9-3.3c-3-1.8-6.2,0.3-6.3,4.1c-0.1,5.4,0,10.8,0,16.1c0,0.5,0.2,1.1-0.2,1.6c-0.4,0-0.5-0.4-0.7-0.7
				c-4.8-6.6-9.7-13.1-14.5-19.7c-1.4-1.9-3.1-2.5-5.1-1.8c-1.7,0.6-2.7,2.1-2.7,4.3c0,10,0,20.1,0,30.1c0,0.9,0.1,1.9,0.7,2.7
				c1.1,1.5,3,2.1,4.9,1.6c1.6-0.5,2.7-2,2.7-3.9C-156.2,127.8-156.2,121.8-156.2,115.3z M-127.6,118.4c0,5,0,10.1,0,15.1
				c0,2.9,1.4,4.4,4.2,4.4c5.1,0,10.2,0,15.3,0c2.6,0,4.3-1.6,4.3-4.1c0-2.4-1.8-4.1-4.3-4.1c-3.1,0-6.2-0.1-9.3,0
				c-1.3,0-1.9-0.2-1.8-1.7c0.1-1.2,0.1-2.4,0-3.7c-0.2-1.5,0.3-1.9,1.8-1.8c3.3,0,6.7,0.3,10-0.1c2.4-0.3,3.8-2.2,3.6-4.4
				c-0.2-2.3-1.9-3.8-4.4-3.8c-3.2,0-6.4,0-9.7,0c-1,0-1.4-0.3-1.3-1.3c0.1-1.2,0-2.3,0-3.5c0-2.5-0.3-2.2,2.3-2.3
				c3.2-0.1,6.4,0.3,9.6-0.2c2.3-0.4,3.6-2.2,3.4-4.4c-0.3-2.3-1.8-3.7-4.3-3.7c-5,0-10,0-15,0c-2.9,0-4.5,1.6-4.5,4.5
				C-127.6,108.4-127.6,113.4-127.6,118.4z M-206.1,118.5c0,5,0,10.1,0,15.1c0,2.7,1.4,4.3,4,4.3c5.3,0.1,10.6,0,16,0
				c2.3,0,4-1.8,3.9-4c0-2.3-1.8-4-4.1-4.1c-3.2,0-6.3-0.1-9.5,0c-1.5,0.1-1.8-0.4-1.8-1.9c0.1-8,0-16.1,0-24.1c0-3.1-1.7-5-4.3-5
				c-2.6,0-4.1,1.8-4.1,4.9C-206.1,108.7-206.1,113.6-206.1,118.5z M-178.6,118.5c0,5.1,0,10.2,0,15.3c0,2.7,1.6,4.2,4.3,4.2
				c2.5,0,4-1.7,4.1-4.4c0-10,0-20.1,0-30.1c0-1-0.2-2.1-0.9-2.9c-1.2-1.4-3-1.9-4.6-1.4c-1.6,0.6-2.8,2.2-2.8,4.1
				C-178.6,108.3-178.6,113.4-178.6,118.5z"/>
			<path fill-rule="evenodd" clip-rule="evenodd" fill="#3FAF36" d="M-233.6,112.2c0.1,0.5,0.1,0.9-0.2,1.3
				C-234.2,113-234.2,112.6-233.6,112.2z"/>
			<path fill-rule="evenodd" clip-rule="evenodd" fill="#3FAF36" d="M-77.9,113.5c-0.2-0.4-0.3-0.9-0.2-1.3
				C-77.4,112.6-77.5,113-77.9,113.5z"/>
			<path fill-rule="evenodd" clip-rule="evenodd" fill="#3FAF36" d="M-233.8,120.9c0.2,0.4,0.3,0.9,0.1,1.3
				C-234.2,121.8-234.2,121.4-233.8,120.9z"/>
			<path fill-rule="evenodd" clip-rule="evenodd" fill="#3FAF36" d="M-78,122.2c-0.1-0.5-0.1-0.9,0.1-1.3
				C-77.5,121.4-77.4,121.8-78,122.2z"/>
			<path fill-rule="evenodd" clip-rule="evenodd" fill="#3FAF36" d="M-161.4,188.8c0.1,0.5,0,0.9-0.2,1.3
				C-161.9,189.6-162,189.2-161.4,188.8z"/>
			<path fill-rule="evenodd" clip-rule="evenodd" fill="#3FAF36" d="M-161.7,191.5c0.1,0.3,0.1,0.5-0.1,0.7
				C-162.2,191.9-162.1,191.6-161.7,191.5z"/>
			<path fill-rule="evenodd" clip-rule="evenodd" fill="#3FAF36" d="M-78.2,123.5c0-0.2,0-0.4,0-0.6
				C-77.9,123.1-78,123.3-78.2,123.5z"/>
			<path fill-rule="evenodd" clip-rule="evenodd" fill="#3FAF36" d="M-233.5,123.2c0,0.1,0,0.2,0,0.3c0-0.1-0.1-0.1-0.1-0.2
				C-233.6,123.3-233.6,123.3-233.5,123.2z"/>
			<path fill-rule="evenodd" clip-rule="evenodd" fill="#3FAF36" d="M-156.2,115.3c0,6.5,0,12.5,0,18.6c0,1.9-1.1,3.4-2.7,3.9
				c-1.9,0.6-3.8-0.1-4.9-1.6c-0.6-0.8-0.7-1.7-0.7-2.7c0-10,0-20.1,0-30.1c0-2.3,1-3.7,2.7-4.3c1.9-0.7,3.6-0.1,5.1,1.8
				c4.9,6.5,9.7,13.1,14.5,19.7c0.2,0.2,0.3,0.6,0.7,0.7c0.4-0.5,0.2-1,0.2-1.6c0-5.4,0-10.8,0-16.1c0-3.8,3.3-5.9,6.3-4.1
				c1.2,0.7,1.9,1.8,1.9,3.3c0,10.5,0,21,0,31.5c0,1.7-1.1,3.1-2.7,3.6c-1.9,0.6-3.8,0-5-1.7c-1.6-2.1-3.1-4.2-4.6-6.3
				c-3.4-4.5-6.7-9.1-10-13.7C-155.5,116-155.7,115.8-156.2,115.3z"/>
			<path fill-rule="evenodd" clip-rule="evenodd" fill="#3FAF36" d="M-127.6,118.4c0-5,0-10,0-15c0-2.9,1.6-4.5,4.5-4.5
				c5,0,10,0,15,0c2.4,0,4,1.4,4.3,3.7c0.2,2.1-1.1,4-3.4,4.4c-3.2,0.5-6.4,0.1-9.6,0.2c-2.7,0.1-2.3-0.2-2.3,2.3
				c0,1.2,0.1,2.3,0,3.5c-0.1,1,0.3,1.3,1.3,1.3c3.2,0,6.4,0,9.7,0c2.5,0,4.2,1.5,4.4,3.8c0.2,2.2-1.2,4-3.6,4.4
				c-3.3,0.5-6.6,0.2-10,0.1c-1.5,0-2,0.4-1.8,1.8c0.1,1.2,0.1,2.4,0,3.7c-0.2,1.5,0.5,1.7,1.8,1.7c3.1-0.1,6.2,0,9.3,0
				c2.5,0,4.3,1.7,4.3,4.1c0,2.4-1.6,4-4.3,4.1c-5.1,0-10.2,0-15.3,0c-2.8,0-4.2-1.5-4.2-4.4C-127.6,128.5-127.6,123.4-127.6,118.4z
				"/>
			<path fill-rule="evenodd" clip-rule="evenodd" fill="#3FAF36" d="M-206.1,118.5c0-4.9,0-9.8,0-14.6c0-3.1,1.5-4.9,4.1-4.9
				c2.7,0,4.3,1.8,4.3,5c0,8.1,0,16.1,0,24.1c0,1.4,0.3,1.9,1.8,1.9c3.2-0.1,6.3-0.1,9.5,0c2.3,0,4.1,1.8,4.1,4.1c0,2.3-1.6,4-3.9,4
				c-5.3,0.1-10.6,0.1-16,0c-2.5,0-4-1.6-4-4.3C-206.1,128.6-206.1,123.5-206.1,118.5z"/>
			<path fill-rule="evenodd" clip-rule="evenodd" fill="#3FAF36" d="M-178.6,118.5c0-5.1,0-10.2,0-15.3c0-1.9,1.2-3.6,2.8-4.1
				c1.7-0.6,3.5,0,4.6,1.4c0.7,0.9,0.9,1.9,0.9,2.9c0,10,0,20.1,0,30.1c0,2.8-1.6,4.4-4.1,4.4c-2.7,0-4.3-1.5-4.3-4.2
				C-178.6,128.7-178.6,123.6-178.6,118.5z"/>
		</g>
	</g>
	<g>
		<path fill="#43B03F" d="M11.4,121.5C11.4,60.9,60.5,11.8,121,11.8s109.7,49.1,109.7,109.7c0,60.6-49.1,109.7-109.7,109.7
			S11.4,182,11.4,121.5z"/>
		<g>
			<path fill-rule="evenodd" clip-rule="evenodd" fill="#F8FAFA" d="M145.6,77.8c2.4,3.8,4.8,7.6,6.2,11.8c0.6,1.9,1.2,3.8,1.7,5.8
				c0.4,1.4,0.2,1.9-1.5,1.8c-15.1-0.4-28.5,4.2-39.4,14.9c-10.9,10.8-15.1,23.8-11.8,39c0.3,1.5-0.1,1.6-1.4,1.6
				c-6.6,0.1-13-0.8-19.3-2.8c-1.2-0.4-2.1-0.2-3.1,0.4c-5,3-10,6-15,9c-0.7,0.4-1.5,1.3-2.5,0.6c-1-0.7-0.4-1.8-0.1-2.7
				c1.4-4.8,2.8-9.7,4.3-14.5c0.4-1.2-0.6-1.4-1.2-1.9c-6.9-5.3-12.3-11.8-15.7-19.8c-2.8-6.4-3.7-13.2-3.4-20.1
				c0.1-0.1,0.1-0.2,0-0.4c0-4.4,1.5-8.4,2.6-12.5c0.3-0.4,0.6-0.7,0.5-1.2c0.4-0.5,0.9-1,0.9-1.6c2.7-4.6,5.4-9.1,9.2-12.9
				c7.3-7.2,15.9-12,25.8-14.5c8.9-2.3,17.9-2.9,27-1.2c13.5,2.5,25.2,8.4,34.2,18.9c0.3,0.3,0.6,0.6,0.9,0.9
				C144.7,77,145.1,77.5,145.6,77.8L145.6,77.8z M127.7,90.6c1-3,0-6.1-2.4-7.9c-2.5-1.8-5.8-1.9-8.3-0.1c-2.6,1.9-3.6,4.9-2.6,8
				c1,3,3.4,4.8,6.4,4.9C124,95.6,126.5,93.8,127.7,90.6z M71.5,91.9c1.4,2.7,3.7,3.8,6.6,3.6c2.9-0.2,5.1-2,5.9-4.7
				c0.1-0.2,0.2-0.4,0.3-0.7c0-0.3,0.1-0.6,0.1-0.8c0.5-3.1-1.1-6-3.8-7.3c-3-1.4-6.2-0.8-8.4,1.6C70.1,86,69.9,89.2,71.5,91.9z"/>
			<path fill-rule="evenodd" clip-rule="evenodd" fill="#F8FAFA" d="M198.7,140.1c0,1.1,0,2.3,0,3.4c0,0.7-0.1,1.3-0.1,2
				c-0.7,2.8-1,5.7-2,8.4c-2.6,7-6.9,12.8-12.7,17.4c-1.3,1.1-1.5,2-1,3.5c1.1,2.8,2,5.7,3,8.5c0.2,0.5,0.4,1,0.5,1.6
				c0.1,0.7,0.4,1.6-0.3,2.1c-0.7,0.5-1.3-0.1-1.9-0.5c-3.5-2.1-7.1-4-10.6-6.3c-1.8-1.1-3.2-1.1-5.2-0.5
				c-18.4,5.7-35.6,3.4-50.7-8.9c-11.2-9.1-16.2-21.2-13.6-35.7c2.1-12.1,9.4-20.8,19.7-27.1c7.2-4.4,15.2-6.6,23.6-7.3
				c0.5,0,1-0.1,1.6-0.1c1.5,0,3.1,0,4.6,0c7.4,0.3,14.5,2.2,21.2,5.3c0.1,0.4,0.5,0.4,0.8,0.5c0.4,0.2,0.7,0.4,1.1,0.6
				c3.5,2.1,6.8,4.4,9.7,7.2c4.1,3.8,7.1,8.4,9.5,13.4l0,0.2l0.1,0.1l0,0.1c0.1,0.2,0.2,0.5,0.3,0.7c-0.1,0.5,0.2,1,0.5,1.4
				C197.7,133.5,198.4,136.8,198.7,140.1z M139.4,128.6c1.3-3.1,0.5-6.1-2.1-7.9c-2.5-1.7-5.7-1.5-7.9,0.5c-2.3,2.1-2.7,5.2-0.9,8.1
				c1.2,2.2,3.2,3.1,5.7,2.9C136.6,132.1,138.5,131,139.4,128.6z M163.1,129.4c1.3,2.3,3.4,3.2,5.9,2.9c2.4-0.3,4.2-1.5,5-3.9
				c1.2-2.9,0.4-5.9-2.2-7.6c-2.5-1.7-5.8-1.4-8,0.6C161.6,123.6,161.3,126.7,163.1,129.4z"/>
		</g>
	</g>
	<g>
		<path fill="#30487A" d="M-544.3,121.2c0-60.4,49-109.4,109.4-109.4c60.4,0,109.4,49,109.4,109.4c0,60.4-49,109.4-109.4,109.4
			C-495.4,230.5-544.3,181.6-544.3,121.2z"/>
		<path fill="#F1F2F1" d="M-407.3,121.2h-18.1v64.6h-26.9v-64.6H-465V98.4h12.8V83.6c0-10.6,5-27.1,27.1-27.1l19.9,0.1v22.2h-14.5
			c-2.4,0-5.7,1.2-5.7,6.2v13.4h20.5L-407.3,121.2z M-407.3,121.2"/>
	</g>
</g>
</svg>
